<svg xmlns="http://www.w3.org/2000/svg" viewBox="0 0 48 48" width="48px" height="48px">
  <path fill="#1976D2" d="M45,35c0,2.209-1.791,4-4,4H7c-2.209,0-4-1.791-4-4V13c0-2.209,1.791-4,4-4h34c2.209,0,4,1.791,4,4V35z"/>
  <path fill="#FFF" d="M22.255 20.773L24.182 20.773 23.219 18.634zM26.019 20.773L27.946 20.773 26.982 18.634zM39.898 26.591L39.898 26.591 38.029 26.591 37.061 24.507 36.093 26.591 31.96 26.591 31.96 22.288 30.19 26.591 28.247 26.591 26.446 22.209 26.446 26.591 23.286 26.591 23.002 25.714 20.434 25.714 20.152 26.591 16.712 26.591 16.712 20.532 20.238 20.532 21.172 22.797 22.104 20.532 25.921 20.532 25.921 21.805 26.116 21.412 27.414 20.532 31.96 20.532 31.96 21.805 32.154 21.412 33.453 20.532 35.211 20.532 39.897 26.589z"/>
  <path fill="#1976D2" d="M38.395 25.698L40.258 25.698 38.327 23.13 38.395 25.698zM27.945 21.425L29.839 25.698 31.188 25.698 29.302 21.425z"/>
  <path fill="#1976D2" d="M31.187 25.698L33.121 25.698 33.121 24.086 34.59 24.086 34.59 22.838 33.121 22.838 33.121 21.425 31.734 21.425 30.117 23.525 31.187 25.698zM21.719 21.425L20 24.456 21.719 24.456z"/>
  <path fill="#1976D2" d="M23.654 21.425L22.322 24.452 24.989 24.452z"/>
  <path fill="#1976D2" d="M34.591 25.698L36.501 25.698 37.065 24.456 38.393 24.456 38.96 25.698 41.203 25.698 39.094 21.425 37.064 21.425 34.591 25.698z"/>
</svg>