<svg xmlns="http://www.w3.org/2000/svg" viewBox="0 0 48 48" width="48px" height="48px">
  <path fill="#3F51B5" d="M45,35c0,2.209-1.791,4-4,4H7c-2.209,0-4-1.791-4-4V13c0-2.209,1.791-4,4-4h34c2.209,0,4,1.791,4,4V35z"/>
  <path fill="#FFC107" d="M30,24c0,3.314-2.686,6-6,6s-6-2.686-6-6s2.686-6,6-6S30,20.686,30,24"/>
  <path fill="#FF3D00" d="M22.001,24c0,1.1.9,2,2,2s2-.9,2-2-.9-2-2-2S22.001,22.9,22.001,24z"/>
  <path fill="#FF3D00" d="M30,24c0,3.314-2.686,6-6,6s-6-2.686-6-6s2.686-6,6-6S30,20.686,30,24"/>
  <path fill="#FFC107" d="M18,24c0-3.314,2.686-6,6-6s6,2.686,6,6"/>
</svg>