<svg xmlns="http://www.w3.org/2000/svg" viewBox="0 0 48 48" width="48px" height="48px">
  <path fill="#1565C0" d="M45,35c0,2.209-1.791,4-4,4H7c-2.209,0-4-1.791-4-4V13c0-2.209,1.791-4,4-4h34c2.209,0,4,1.791,4,4V35z"/>
  <path fill="#FFF" d="M15.186 19l-2.626 7.832c0 0-.667-3.313-.733-3.729-1.495-3.411-3.701-3.221-3.701-3.221L10.726 30v-.002h3.161L18.258 19H15.186zM17.689 30L20.56 30 22.296 19 19.389 19zM38.008 19h-3.021l-4.71 11h2.852l.588-1.571h3.596L37.619 30h2.613L38.008 19zM34.513 26.328l1.563-4.157.818 4.157H34.513zM26.369 22.206c0-.606.498-1.057 1.926-1.057.928 0 1.991.146 1.991.146l.466-2.085c0 0-1.358-.499-3.018-.499-3.229 0-4.878 1.592-4.878 3.442 0 2.013 3.94 2.35 3.94 3.55 0 .117-.044.23-.19.499-.292.55-1.758.336-2.732.087l-.337 2.264c0 0 1.279.437 3.394.437 2.732 0 5.446-1.699 5.446-4.471C32.378 22.092 26.369 22.206 26.369 22.206z"/>
</svg>